<?xml version="1.0" encoding="UTF-8" standalone="no"?>
<svg
   xmlns:dc="http://purl.org/dc/elements/1.1/"
   xmlns:cc="http://creativecommons.org/ns#"
   xmlns:rdf="http://www.w3.org/1999/02/22-rdf-syntax-ns#"
   xmlns:svg="http://www.w3.org/2000/svg"
   xmlns="http://www.w3.org/2000/svg"
   xmlns:sodipodi="http://sodipodi.sourceforge.net/DTD/sodipodi-0.dtd"
   xmlns:inkscape="http://www.inkscape.org/namespaces/inkscape"
   height="390pt"
   viewBox="0 -3 390.192 390"
   width="390pt"
   id="svg2"
   version="1.1"
   inkscape:version="0.91 r13725"
   sodipodi:docname="rts.svg">
  <metadata
     id="metadata10">
    <rdf:RDF>
      <cc:Work
         rdf:about="">
        <dc:format>image/svg+xml</dc:format>
        <dc:type
           rdf:resource="http://purl.org/dc/dcmitype/StillImage" />
      </cc:Work>
    </rdf:RDF>
  </metadata>
  <defs
     id="defs8" />
  <sodipodi:namedview
     pagecolor="#ffffff"
     bordercolor="#666666"
     borderopacity="1"
     objecttolerance="10"
     gridtolerance="10"
     guidetolerance="10"
     inkscape:pageopacity="0"
     inkscape:pageshadow="2"
     inkscape:window-width="640"
     inkscape:window-height="480"
     id="namedview6"
     showgrid="false"
     inkscape:zoom="0.48410256"
     inkscape:cx="243.75"
     inkscape:cy="243.75"
     inkscape:window-x="528"
     inkscape:window-y="277"
     inkscape:window-maximized="0"
     inkscape:current-layer="svg2" />
  <path
     d="m 230.10582,264.124 -24.94914,0 0,-48.01756 49.89828,0 c 48.15319,0 87.322,-37.69543 87.322,-84.03073 0,-46.338239 -39.16881,-84.030735 -87.322,-84.030735 l -174.643995,0 0,24.00878 c 34.393395,0 62.372855,26.924886 62.372855,60.021955 0,33.09413 -27.97946,60.02195 -62.372855,60.02195 l 0,24.00878 99.796565,0 0,48.01756 -24.94914,0 0,-24.00878 -112.271139,0 0,60.02195 c 0,19.85882 16.784024,36.01317 37.423714,36.01317 l 233.529695,0 33.26349,-96.03512 -117.09833,0 z m -88.63768,-192.070245 113.58682,0 c 30.12049,0 55.31936,20.653061 61.112,48.017565 l -149.43294,0 c -2.79277,-18.6748 -11.88069,-35.409438 -25.26588,-48.017565 z m 0,120.043905 c 13.38519,-12.61106 22.4792,-29.3457 25.27197,-48.01756 l 149.43294,0 c -5.79263,27.36156 -30.99151,48.01756 -61.112,48.01756 z m 113.58682,72.02634 57.53957,0 -16.63479,48.01756 -215.548775,0 c -6.879897,0 -12.474571,-5.38381 -12.474571,-12.00439 l 0,-36.01317 62.372856,0 0,24.00878 124.74571,0 z m 0,0"
     id="path4"
     style="fill:#f9f9f9"
     inkscape:connector-curvature="0" />
</svg>
