<?xml version="1.0" encoding="UTF-8" standalone="no"?>
<svg
   xmlns:dc="http://purl.org/dc/elements/1.1/"
   xmlns:cc="http://creativecommons.org/ns#"
   xmlns:rdf="http://www.w3.org/1999/02/22-rdf-syntax-ns#"
   xmlns:svg="http://www.w3.org/2000/svg"
   xmlns="http://www.w3.org/2000/svg"
   xmlns:sodipodi="http://sodipodi.sourceforge.net/DTD/sodipodi-0.dtd"
   xmlns:inkscape="http://www.inkscape.org/namespaces/inkscape"
   height="390pt"
   viewBox="0 -3 390.192 390"
   width="390pt"
   id="svg2"
   version="1.1"
   inkscape:version="0.91 r13725"
   sodipodi:docname="startrts.svg">
  <metadata
     id="metadata10">
    <rdf:RDF>
      <cc:Work
         rdf:about="">
        <dc:format>image/svg+xml</dc:format>
        <dc:type
           rdf:resource="http://purl.org/dc/dcmitype/StillImage" />
      </cc:Work>
    </rdf:RDF>
  </metadata>
  <defs
     id="defs8" />
  <sodipodi:namedview
     pagecolor="#ffffff"
     bordercolor="#666666"
     borderopacity="1"
     objecttolerance="10"
     gridtolerance="10"
     guidetolerance="10"
     inkscape:pageopacity="0"
     inkscape:pageshadow="2"
     inkscape:window-width="1855"
     inkscape:window-height="951"
     id="namedview6"
     showgrid="false"
     inkscape:zoom="1"
     inkscape:cx="-81.434174"
     inkscape:cy="184.77527"
     inkscape:window-x="65"
     inkscape:window-y="24"
     inkscape:window-maximized="1"
     inkscape:current-layer="g9" />
  <path
     d="m 249.83438,276.2589 -20.74574,0 0,-39.92763 41.49148,0 c 40.04041,0 72.61012,-31.34456 72.61012,-69.87336 0,-38.53123 -32.56971,-69.873353 -72.61012,-69.873353 l -145.22022,0 0,19.963813 c 28.59885,0 51.86437,22.38862 51.86437,49.90954 0,27.51848 -23.26552,49.90954 -51.86437,49.90954 l 0,19.96382 82.98298,0 0,39.92763 -20.74574,0 0,-19.96382 -93.355858,0 0,49.90954 c 0,16.51303 13.956278,29.94572 31.118618,29.94572 l 194.18495,0 27.6593,-79.85526 -97.36977,0 z m -73.70413,-159.71053 94.44987,0 c 25.04584,0 45.99924,17.17346 50.81594,39.92764 l -124.25669,0 c -2.32225,-15.5285 -9.87905,-29.44371 -21.00912,-39.92764 z m 0,99.81908 c 11.13007,-10.48637 18.69194,-24.40158 21.01418,-39.92763 l 124.2567,0 c -4.8167,22.75172 -25.77011,39.92763 -50.81594,39.92763 z m 94.44987,59.89145 47.84539,0 -13.83218,39.92763 -179.23343,0 c -5.72078,0 -10.37287,-4.47676 -10.37287,-9.98191 l 0,-29.94572 51.86436,0 0,19.96381 103.72873,0 z m 0,0"
     id="path4"
     style="fill:#f9f9f9"
     inkscape:connector-curvature="0" />
  <g
     transform="matrix(-4.4449784,0,0,4.4449784,147.72189,-29.277071)"
     id="g9"
     style="fill:#f9f9f9">
    <g
       id="g13"
       style="fill:#f9f9f9"
       transform="matrix(0,0.83517535,-0.83517535,0,42.34015,14.395971)">
      <polygon
         class="st2"
         points="36.003,56.785 49.958,32.603 22.035,32.61 "
         id="polygon15"
         style="fill:#f9f9f9" />
    </g>
    <rect
       style="fill:#f9f9f9"
       id="rect3347"
       width="16.703506"
       height="6.6814027"
       x="-31.411079"
       y="41.118652"
       transform="scale(-1,1)" />
    <rect
       style="fill:#f9f9f9"
       id="rect3347-3"
       width="16.703506"
       height="6.6814027"
       x="-47.644207"
       y="-31.352192"
       transform="matrix(0,-1,-1,0,0,0)" />
  </g>
</svg>
