<?xml version="1.0" encoding="UTF-8" standalone="no"?>
<svg
   xmlns:dc="http://purl.org/dc/elements/1.1/"
   xmlns:cc="http://creativecommons.org/ns#"
   xmlns:rdf="http://www.w3.org/1999/02/22-rdf-syntax-ns#"
   xmlns:svg="http://www.w3.org/2000/svg"
   xmlns="http://www.w3.org/2000/svg"
   xmlns:sodipodi="http://sodipodi.sourceforge.net/DTD/sodipodi-0.dtd"
   xmlns:inkscape="http://www.inkscape.org/namespaces/inkscape"
   height="390pt"
   viewBox="0 -3 390.192 390"
   width="390pt"
   id="svg2"
   version="1.1"
   inkscape:version="0.91 r13725"
   sodipodi:docname="startrtw.svg">
  <metadata
     id="metadata10">
    <rdf:RDF>
      <cc:Work
         rdf:about="">
        <dc:format>image/svg+xml</dc:format>
        <dc:type
           rdf:resource="http://purl.org/dc/dcmitype/StillImage" />
      </cc:Work>
    </rdf:RDF>
  </metadata>
  <defs
     id="defs8">
    <inkscape:path-effect
       effect="spiro"
       id="path-effect3348"
       is_visible="true" />
  </defs>
  <sodipodi:namedview
     pagecolor="#ffffff"
     bordercolor="#666666"
     borderopacity="1"
     objecttolerance="10"
     gridtolerance="10"
     guidetolerance="10"
     inkscape:pageopacity="0"
     inkscape:pageshadow="2"
     inkscape:window-width="1855"
     inkscape:window-height="951"
     id="namedview6"
     showgrid="true"
     inkscape:zoom="1"
     inkscape:cx="61"
     inkscape:cy="184.77527"
     inkscape:window-x="65"
     inkscape:window-y="24"
     inkscape:window-maximized="1"
     inkscape:current-layer="g9">
    <inkscape:grid
       type="xygrid"
       id="grid3344" />
  </sodipodi:namedview>
  <g
     transform="matrix(-4.4449784,0,0,4.4449784,147.72189,-29.277071)"
     id="g9"
     style="fill:#f9f9f9">
    <g
       id="g3338"
       transform="matrix(0,-1,1,0,-41.516049,48.718968)"
       style="fill:#f9f9f9">
      <g
         transform="matrix(0,0.83517535,-0.83517535,0,42.34015,14.395971)"
         style="fill:#f9f9f9"
         id="g13">
        <polygon
           style="fill:#f9f9f9"
           id="polygon15"
           points="36.003,56.785 49.958,32.603 22.035,32.61 "
           class="st2" />
      </g>
      <rect
         transform="scale(-1,1)"
         y="41.11866"
         x="-31.771214"
         height="6.6814027"
         width="16.703506"
         id="rect3347"
         style="fill:#f9f9f9" />
      <rect
         transform="matrix(0,-1,-1,0,0,0)"
         y="-31.712326"
         x="-57.727962"
         height="6.6814027"
         width="16.703506"
         id="rect3347-3"
         style="fill:#f9f9f9" />
    </g>
    <g
       transform="matrix(-0.12554669,0,0,0.12554669,21.482028,38.934325)"
       id="g3"
       style="fill:#f9f9f9">
      <g
         id="g5"
         style="fill:#f9f9f9">
        <g
           id="g7"
           style="fill:#f9f9f9">
          <path
             inkscape:connector-curvature="0"
             d="m -50.391519,271.181 c 30.288,25.979 121.986519,55.426 188.387519,55.426 66.403,-0.001 100.733,-29.447 131.022,-55.426 28.644,-24.568 53.382,-45.787 104.98,-45.787 51.599,0 133.70752,21.219 162.35052,45.787 8.385,7.191 21.011,6.225 28.202,-2.159 7.191,-8.385 6.225,-21.011 -2.16,-28.202 -30.289,-25.979 -121.98952,-55.426 -188.39252,-55.426 -66.403,0 -100.733,29.446 -131.022,55.426 -28.644,24.568 -53.382,45.787 -104.98,45.787 -51.597,0 -133.7025194,-21.218 -162.344519,-45.787 -8.384,-7.191 -21.01,-6.226 -28.202,2.159 -7.192,8.384 -6.225,21.011 2.159,28.202 z"
             id="path9"
             sodipodi:nodetypes="ccsscccscsccc"
             style="fill:#f9f9f9" />
          <path
             inkscape:connector-curvature="0"
             d="m -50.391519,161.787 c 30.287,25.98 121.985519,55.426 188.387519,55.426 66.403,0 100.733,-29.446 131.022,-55.426 C 297.662,137.219 322.399,116 373.998,116 c 51.597,0 133.70552,21.218 162.35052,45.787 8.385,7.193 21.01,6.224 28.201,-2.161 7.192,-8.384 6.223,-21.012 -2.161,-28.202 C 532.09952,105.444 440.399,76 373.998,76 c -66.403,0 -100.733,29.446 -131.022,55.426 -28.644,24.568 -53.382,45.787 -104.98,45.787 -51.596,0 -133.7025194,-21.218 -162.344519,-45.787 -8.384,-7.192 -21.011,-6.226 -28.202,2.159 -7.192,8.384 -6.225,21.011 2.159,28.202 z"
             id="path11"
             sodipodi:nodetypes="cscscccscsccc"
             style="fill:#f9f9f9" />
          <path
             inkscape:connector-curvature="0"
             d="M 562.39052,350.213 C 532.10152,324.234 440.401,294.787 373.998,294.787 c -66.403,0 -100.733,29.446 -131.022,55.426 C 214.332,374.781 189.594,396 137.996,396 86.402,396 4.2944806,374.782 -24.347519,350.215 l -0.002,-0.002 c -8.384,-7.189 -21.009,-6.223 -28.201,2.16 -7.191,8.384 -6.224,21.011 2.16,28.202 C -20.102519,406.555 71.597,436 137.996,436 c 66.403,0 100.733,-29.446 131.022,-55.426 28.644,-24.568 53.382,-45.787 104.98,-45.787 51.599,0 133.70752,21.219 162.35052,45.787 8.385,7.191 21.011,6.225 28.202,-2.159 7.191,-8.385 6.225,-21.011 -2.16,-28.202 z"
             id="path13"
             sodipodi:nodetypes="cscsccccscsccc"
             style="fill:#f9f9f9" />
        </g>
      </g>
    </g>
    <g
       transform="matrix(-0.12554669,0,0,0.12554669,66.396389,20.604507)"
       id="g15"
       style="fill:#f9f9f9" />
    <g
       transform="matrix(-0.12554669,0,0,0.12554669,66.396389,20.604507)"
       id="g17"
       style="fill:#f9f9f9" />
    <g
       transform="matrix(-0.12554669,0,0,0.12554669,66.396389,20.604507)"
       id="g19"
       style="fill:#f9f9f9" />
    <g
       transform="matrix(-0.12554669,0,0,0.12554669,66.396389,20.604507)"
       id="g21"
       style="fill:#f9f9f9" />
    <g
       transform="matrix(-0.12554669,0,0,0.12554669,66.396389,20.604507)"
       id="g23"
       style="fill:#f9f9f9" />
    <g
       transform="matrix(-0.12554669,0,0,0.12554669,66.396389,20.604507)"
       id="g25"
       style="fill:#f9f9f9" />
    <g
       transform="matrix(-0.12554669,0,0,0.12554669,66.396389,20.604507)"
       id="g27"
       style="fill:#f9f9f9" />
    <g
       transform="matrix(-0.12554669,0,0,0.12554669,66.396389,20.604507)"
       id="g29"
       style="fill:#f9f9f9" />
    <g
       transform="matrix(-0.12554669,0,0,0.12554669,66.396389,20.604507)"
       id="g31"
       style="fill:#f9f9f9" />
    <g
       transform="matrix(-0.12554669,0,0,0.12554669,66.396389,20.604507)"
       id="g33"
       style="fill:#f9f9f9" />
    <g
       transform="matrix(-0.12554669,0,0,0.12554669,66.396389,20.604507)"
       id="g35"
       style="fill:#f9f9f9" />
    <g
       transform="matrix(-0.12554669,0,0,0.12554669,66.396389,20.604507)"
       id="g37"
       style="fill:#f9f9f9" />
    <g
       transform="matrix(-0.12554669,0,0,0.12554669,66.396389,20.604507)"
       id="g39"
       style="fill:#f9f9f9" />
    <g
       transform="matrix(-0.12554669,0,0,0.12554669,66.396389,20.604507)"
       id="g41"
       style="fill:#f9f9f9" />
    <g
       transform="matrix(-0.12554669,0,0,0.12554669,66.396389,20.604507)"
       id="g43"
       style="fill:#f9f9f9" />
  </g>
</svg>
